<?xml version="1.0" encoding="UTF-8" standalone="no"?>
<svg
   xmlns:dc="http://purl.org/dc/elements/1.1/"
   xmlns:cc="http://creativecommons.org/ns#"
   xmlns:rdf="http://www.w3.org/1999/02/22-rdf-syntax-ns#"
   xmlns:svg="http://www.w3.org/2000/svg"
   xmlns="http://www.w3.org/2000/svg"
   viewBox="0 0 1333.3333 1333.3333"
   height="1333.3333"
   width="1333.3333"
   xml:space="preserve"
   id="svg2"
   version="1.1"><metadata
     id="metadata8"><rdf:RDF><cc:Work
         rdf:about=""><dc:format>image/svg+xml</dc:format><dc:type
           rdf:resource="http://purl.org/dc/dcmitype/StillImage" /></cc:Work></rdf:RDF></metadata><defs
     id="defs6"><clipPath
       id="clipPath30"
       clipPathUnits="userSpaceOnUse"><path
         id="path28"
         d="M 0,1000 H 1000 V 0 H 0 Z" /></clipPath><clipPath
       id="clipPath38"
       clipPathUnits="userSpaceOnUse"><path
         id="path36"
         d="M 29.9689,648.439 H 332.749 V 372.051 H 29.9689 Z" /></clipPath><linearGradient
       id="linearGradient52"
       spreadMethod="pad"
       gradientTransform="matrix(302.77982,0,0,-302.77982,29.968862,510.24481)"
       gradientUnits="userSpaceOnUse"
       y2="0"
       x2="1"
       y1="0"
       x1="0"><stop
         id="stop44"
         offset="0"
         style="stop-opacity:1;stop-color:#80378a" /><stop
         id="stop46"
         offset="0.180905"
         style="stop-opacity:1;stop-color:#80378a" /><stop
         id="stop48"
         offset="0.824121"
         style="stop-opacity:1;stop-color:#30bfe7" /><stop
         id="stop50"
         offset="1"
         style="stop-opacity:1;stop-color:#30bfe7" /></linearGradient><linearGradient
       id="linearGradient104"
       spreadMethod="pad"
       gradientTransform="matrix(197.74165,0,0,-197.74165,96.800072,510.24481)"
       gradientUnits="userSpaceOnUse"
       y2="0"
       x2="1"
       y1="0"
       x1="0"><stop
         id="stop96"
         offset="0"
         style="stop-opacity:1;stop-color:#80378a" /><stop
         id="stop98"
         offset="0.180905"
         style="stop-opacity:1;stop-color:#80378a" /><stop
         id="stop100"
         offset="0.824121"
         style="stop-opacity:1;stop-color:#30bfe7" /><stop
         id="stop102"
         offset="1"
         style="stop-opacity:1;stop-color:#30bfe7" /></linearGradient><clipPath
       id="clipPath114"
       clipPathUnits="userSpaceOnUse"><path
         id="path112"
         d="M 0,1000 H 1000 V 0 H 0 Z" /></clipPath></defs><g
     transform="matrix(1.3333333,0,0,-1.3333333,0,1333.3333)"
     id="g10"><text
       id="text14"
       style="font-variant:normal;font-weight:800;font-stretch:normal;font-size:134.24180603px;font-family:Izmir-Extrabold;-inkscape-font-specification:Izmir-Extrabold;writing-mode:lr-tb;fill:#100c2f;fill-opacity:1;fill-rule:nonzero;stroke:none"
       transform="matrix(1,0,0,-1,270.6553,439.8765)"><tspan
         id="tspan12"
         y="0"
         x="0 88.062622 121.75731 179.2128 255.86487 338.55783">Vizual</tspan></text>
<text
       id="text18"
       style="font-variant:normal;font-weight:300;font-stretch:normal;font-size:134.24180603px;font-family:Izmir-Light;-inkscape-font-specification:Izmir-Light;writing-mode:lr-tb;fill:#100c2f;fill-opacity:1;fill-rule:nonzero;stroke:none"
       transform="matrix(1,0,0,-1,643.17629,439.8765)"><tspan
         id="tspan16"
         y="0"
         x="0 67.120903 144.44418 222.70715">Tech</tspan></text>
<text
       id="text22"
       style="font-variant:normal;font-weight:300;font-stretch:normal;font-size:42.08470154px;font-family:Izmir-Light;-inkscape-font-specification:Izmir-Light;writing-mode:lr-tb;fill:#100c2f;fill-opacity:1;fill-rule:nonzero;stroke:none"
       transform="matrix(1,0,0,-1,428.6118,390.6343)"><tspan
         id="tspan20"
         y="0"
         x="0 38.717922 86.021126 121.24181 164.7153 202.59154 225.99063 273.28961 316.51062">SOLUTIONS</tspan></text>
<g
       id="g24"><g
         clip-path="url(#clipPath30)"
         id="g26"><g
           id="g32"><g
             id="g34" /><g
             id="g82"><g
               style="opacity:0.119995"
               id="g80"
               clip-path="url(#clipPath38)"><g
                 id="g62"><g
                   id="g60"><g
                     id="g58"><g
                       id="g56"><path
                         id="path54"
                         style="fill:url(#linearGradient52);fill-rule:evenodd;stroke:none"
                         d="m 167.11,583.029 -137.141,37.064 71.599,-124.014 5.17,-8.954 z m 60.656,21.304 -98.427,-156.365 43.835,-75.917 71.599,124.028 87.976,152.36 z" /></g></g></g></g><g
                 id="g66"
                 transform="translate(125.0259,553.6089)"><path
                   id="path64"
                   style="fill:#ffffff;fill-opacity:1;fill-rule:evenodd;stroke:none"
                   d="m 0,0 c 0,-5.893 -4.777,-10.67 -10.67,-10.67 -5.893,0 -10.67,4.777 -10.67,10.67 0,5.893 4.777,10.67 10.67,10.67 C -4.777,10.67 0,5.893 0,0" /></g><g
                 id="g70"
                 transform="translate(112.7363,551.5591)"><path
                   id="path68"
                   style="fill:#ffffff;fill-opacity:1;fill-rule:nonzero;stroke:none"
                   d="M 0,0 -61.21,51.692 3.239,4.1 Z" /></g><g
                 id="g74"
                 transform="translate(180.1899,439.083)"><path
                   id="path72"
                   style="fill:#ffffff;fill-opacity:1;fill-rule:evenodd;stroke:none"
                   d="m 0,0 c 0,-5.894 -4.777,-10.671 -10.67,-10.671 -5.893,0 -10.67,4.777 -10.67,10.671 0,5.893 4.777,10.67 10.67,10.67 C -4.777,10.67 0,5.893 0,0" /></g><g
                 id="g78"
                 transform="translate(167.2847,440.4346)"><path
                   id="path76"
                   style="fill:#ffffff;fill-opacity:1;fill-rule:nonzero;stroke:none"
                   d="M 0,0 98.787,158.235 4.471,-2.704 Z" /></g></g></g></g></g></g><g
       id="g84"><g
         id="g86"><g
           id="g92"><g
             id="g94"><path
               id="path106"
               style="fill:url(#linearGradient104);fill-rule:evenodd;stroke:none"
               d="m 186.365,557.779 -89.565,24.206 46.761,-80.992 3.376,-5.847 z m 39.614,13.914 -64.282,-102.121 28.629,-49.58 46.76,81.001 57.456,99.505 z" /></g></g></g></g><g
       id="g108"><g
         clip-path="url(#clipPath114)"
         id="g110"><g
           transform="translate(158.8809,538.5654)"
           id="g116"><path
             id="path118"
             style="fill:#ffffff;fill-opacity:1;fill-rule:evenodd;stroke:none"
             d="m 0,0 c 0,-3.849 -3.12,-6.968 -6.969,-6.968 -3.848,0 -6.968,3.119 -6.968,6.968 0,3.849 3.12,6.968 6.968,6.968 C -3.12,6.968 0,3.849 0,0" /></g><g
           transform="translate(150.8545,537.2266)"
           id="g120"><path
             id="path122"
             style="fill:#ffffff;fill-opacity:1;fill-rule:nonzero;stroke:none"
             d="M 0,0 -39.976,33.76 2.116,2.678 Z" /></g><g
           transform="translate(194.9077,463.7695)"
           id="g124"><path
             id="path126"
             style="fill:#ffffff;fill-opacity:1;fill-rule:evenodd;stroke:none"
             d="m 0,0 c 0,-3.849 -3.12,-6.969 -6.969,-6.969 -3.848,0 -6.968,3.12 -6.968,6.969 0,3.849 3.12,6.969 6.968,6.969 C -3.12,6.969 0,3.849 0,0" /></g><g
           transform="translate(186.4795,464.6533)"
           id="g128"><path
             id="path130"
             style="fill:#ffffff;fill-opacity:1;fill-rule:nonzero;stroke:none"
             d="M 0,0 64.516,103.341 2.919,-1.767 Z" /></g></g></g></g></svg>