<svg version="1.2" xmlns="http://www.w3.org/2000/svg" viewBox="0 0 1000 1000" width="1000" height="1000">
	<title>7455074-ai</title>
	<style>
		tspan { white-space:pre } 
		.s0 { fill: #ffffff } 
		.s1 { fill: #3b4051 } 
		.s2 { fill: #ff2424 } 
		.t3 { font-size: 42px;text-transform: uppercase;fill: #3b4051;font-weight: 800;font-family: "Outfit-ExtraBold", "Outfit" } 
		.t4 { font-size: 42px;text-transform: uppercase;fill: #ff2424;font-weight: 800;font-family: "Outfit-ExtraBold", "Outfit" } 
	</style>
	<g id="BACKGROUND">
		<g id="&lt;Group&gt;">
			<path id="&lt;Path&gt;" class="s0" d="m0 0h1000v1000h-1000z"/>
		</g>
	</g>
	<g id="OBJECTS">
		<g id="&lt;Group&gt;">
			<g id="&lt;Group&gt;">
				<g id="&lt;Group&gt;">
					<path id="&lt;Path&gt;" class="s0" d="m539.5 315.5h44.8l20.1-40h-44.8z"/>
				</g>
			</g>
			<path id="&lt;Path&gt;" class="s1" d="m337.1 275.5l55.6 110.6z"/>
			<path id="&lt;Path&gt;" class="s1" d="m448.4 496.7l-55.7-110.6-55.6-110.6h-44.8l156.1 310.2 22.3-44.5z"/>
			<g id="&lt;Group&gt;">
				<g id="&lt;Group&gt;">
					<path id="&lt;Path&gt;" class="s1" d="m673.6 315.5l20.1-40h-44.8l-20.1 40z"/>
				</g>
			</g>
			<path id="&lt;Path&gt;" class="s1" d="m620.2 410.4h-26.6-55.6-22.2c-26.2 0-47.4-21.3-47.4-47.5 0-26.1 21.2-47.4 47.4-47.4h68.5l20.1-40h-88.6c-48.2 0-87.4 39.2-87.4 87.4 0 48.3 39.2 87.5 87.4 87.5h22.2 55.6 26.6c26.2 0 47.5 21.3 47.5 47.5 0 26.1-21.3 47.4-47.5 47.4h-106.9l-20.1 40h127c48.3 0 87.5-39.2 87.5-87.4 0-48.3-39.2-87.5-87.5-87.5z"/>
			<g id="&lt;Group&gt;">
				<path id="&lt;Path&gt;" class="s2" d="m519.4 355.5l-71 141.2 22.3 44.5 93.5-185.7z"/>
				<path id="&lt;Path&gt;" class="s2" d="m584.3 315.5l20.1-40h-44.8l-20.1 40z"/>
			</g>
		</g>
	</g>
	<g id="TEXTS">
		<g id="&lt;Group&gt;">
			<g id="&lt;Group&gt;">
				<text id="vizualtech" style="transform: matrix(2,0,0,2,498.001,699.047)" >
					<tspan x="-130.4" y="0" class="t3">V</tspan><tspan  y="0" class="t3">I</tspan><tspan  y="0" class="t3">Z</tspan><tspan  y="0" class="t3">U</tspan><tspan  y="0" class="t3">A</tspan><tspan  y="0" class="t3">L</tspan><tspan  y="0" class="t4">T</tspan><tspan  y="0" class="t4">E</tspan><tspan  y="0" class="t4">C</tspan><tspan  y="0" class="t4">H</tspan><tspan  y="0" class="t4">
</tspan>
				</text>
			</g>
		</g>
	</g>
</svg>